STARTFONT 2.1
FONT -FontForge-Futura Md BT-Book-R-Normal--72-1440-36-36-P-402-ISO10646-1
SIZE 144 36 36
FONTBOUNDINGBOX 69 75 -1 -19
COMMENT "Generated by fontforge, http://fontforge.sourceforge.net"
COMMENT "Copyright 1990-1993 Bitstream Inc.  All rights reserved."
STARTPROPERTIES 39
FOUNDRY "FontForge"
FAMILY_NAME "Futura Md BT"
WEIGHT_NAME "Book"
SLANT "R"
SETWIDTH_NAME "Normal"
ADD_STYLE_NAME ""
PIXEL_SIZE 72
POINT_SIZE 1440
RESOLUTION_X 36
RESOLUTION_Y 36
SPACING "P"
AVERAGE_WIDTH 402
CHARSET_REGISTRY "ISO10646"
CHARSET_ENCODING "1"
FONTNAME_REGISTRY ""
CHARSET_COLLECTIONS "ISO10646-1"
FONT_NAME "FuturaBT-Medium"
FACE_NAME "Futura Medium BT"
COPYRIGHT "Copyright 1990-1993 Bitstream Inc.  All rights reserved."
FONT_VERSION "mfgpctt-v1.52 Tuesday, January 12, 1993 3:32:04 pm (EST)"
FONT_ASCENT 58
FONT_DESCENT 14
UNDERLINE_POSITION -10
UNDERLINE_THICKNESS 6
X_HEIGHT 32
CAP_HEIGHT 50
RAW_ASCENT 799
RAW_DESCENT 200
RELATIVE_WEIGHT 40
RELATIVE_SETWIDTH 50
SUPERSCRIPT_X 0
SUPERSCRIPT_Y 20
SUPERSCRIPT_SIZE 43
SUBSCRIPT_X 0
SUBSCRIPT_Y -15
SUBSCRIPT_SIZE 43
FIGURE_WIDTH 43
AVG_LOWERCASE_WIDTH 361
AVG_UPPERCASE_WIDTH 461
ENDPROPERTIES
CHARS 96
STARTCHAR exclam
ENCODING 33
SWIDTH 329 0
DWIDTH 24 0
BBX 9 52 7 -1
BITMAP
7F80
7F80
7F80
7F80
7F80
7F80
7F80
7F80
7F80
7F80
7F80
7F80
7F80
7F80
7F80
7F80
7F80
7F80
7F80
7F80
7F80
7F80
7F80
7F80
7F80
7F80
7F80
7F80
7F80
7F80
7F80
7F80
7F80
7F80
7F80
7F80
7F80
7F80
7F80
7F80
0000
0000
0000
0000
3C00
7E00
FF00
FF00
FF00
FF00
7E00
3C00
ENDCHAR
STARTCHAR quotedbl
ENCODING 34
SWIDTH 313 0
DWIDTH 23 0
BBX 17 20 3 30
BITMAP
FC1F80
FC1F80
FC1F80
FC1F80
FC1F80
FC1F80
FC1F80
FC1F80
FC1F80
FC1F80
FC1F80
FC1F80
FC1F80
FC1F80
FC1F80
FC1F80
FC1F80
FC1F80
FC1F80
FC1F80
ENDCHAR
STARTCHAR numbersign
ENCODING 35
SWIDTH 769 0
DWIDTH 55 0
BBX 50 51 2 0
BITMAP
000001FC03F800
000001F803F800
000003F803F000
000003F807F000
000003F007F000
000007F007E000
000007F00FE000
00000FE00FE000
00000FE00FC000
00000FC01FC000
00001FC01F8000
00001FC03F8000
00001F803F8000
00003F803F0000
00003F807F0000
01FFFFFFFFFFC0
03FFFFFFFFFF80
03FFFFFFFFFF80
03FFFFFFFFFF80
07FFFFFFFFFF00
07FFFFFFFFFF00
0001FC01FC0000
0001FC01F80000
0001F803F80000
0003F803F80000
0003F803F00000
0003F007F00000
0007F007E00000
0007F007E00000
0007E00FE00000
3FFFFFFFFFF800
3FFFFFFFFFF800
7FFFFFFFFFF000
7FFFFFFFFFF000
7FFFFFFFFFF000
FFFFFFFFFFE000
003F803F000000
003F807F000000
003F007F000000
007F007E000000
007E00FE000000
00FE00FE000000
00FE00FC000000
00FC01FC000000
01FC01F8000000
01FC03F8000000
01F803F8000000
03F803F0000000
03F807F0000000
03F007F0000000
07F00FE0000000
ENDCHAR
STARTCHAR dollar
ENCODING 36
SWIDTH 604 0
DWIDTH 43 0
BBX 34 62 4 -6
BITMAP
0001E00000
0001E00000
0001E00000
0001E00000
000FFC0000
007FFFC000
00FFFFF000
03FFFFF800
07FFFFFC00
07FFFFFE00
0FFFFFFF00
1FFDE7FF00
1FF1E1FF00
1FE1E07C00
3FE1E03000
3FC1E00000
3FC1E00000
3FC1E00000
3FC1E00000
3FC1E00000
3FE1E00000
1FF1E00000
1FF9E00000
1FFDE00000
0FFFE00000
07FFE00000
07FFF80000
03FFFE0000
00FFFF8000
007FFFE000
001FFFF000
000FFFFC00
0001FFFE00
0001FFFF00
0001EFFF00
0001E3FF80
0001E1FF80
0001E0FFC0
0001E07FC0
0001E03FC0
0001E03FC0
0001E03FC0
0201E03FC0
0E01E03FC0
3F01E07FC0
FF01E07F80
FF81E0FF80
7FC1E3FF80
7FF9EFFF00
3FFFFFFF00
1FFFFFFE00
0FFFFFFC00
07FFFFF000
03FFFFE000
00FFFF8000
001FF80000
0001E00000
0001E00000
0001E00000
0001E00000
0001E00000
0001E00000
ENDCHAR
STARTCHAR percent
ENCODING 37
SWIDTH 791 0
DWIDTH 57 0
BBX 53 53 2 -1
BITMAP
00FE000001F000
03FFC00003E000
0FFFE00003E000
1FFFF00007C000
3F83F8000FC000
3F01F8000F8000
7E00FC001F0000
7E00FC001F0000
7E00FC003E0000
FC007E003E0000
FC007E007C0000
FC007E00FC0000
FC007E00F80000
FC007E01F80000
FC007E01F00000
FC007E03E00000
FC007E03E00000
FC007E07C00000
7E00FC0FC00000
7E00FC0F800000
7E00FC1F800000
3F01F81F000000
3F83F83E000000
1FFFF03E000000
0FFFE07C000000
07FFC07C000000
00FE00F803F800
000001F81FFF00
000001F03FFF80
000003E07FFFC0
000003E0FE0FE0
000007C0FC07E0
000007C1F803F0
00000F81F803F0
00001F81F803F0
00001F03F001F8
00003F03F001F8
00003E03F001F8
00007C03F001F8
00007C03F001F8
0000F803F001F8
0001F803F001F8
0001F003F001F8
0003F003F001F8
0003E001F803F0
0007C001F803F0
0007C001F803F0
000F8000FC07E0
001F8000FE0FE0
001F00007FFFC0
003F00003FFF80
003E00001FFE00
007C000003F800
ENDCHAR
STARTCHAR ampersand
ENCODING 38
SWIDTH 670 0
DWIDTH 48 0
BBX 46 53 2 -1
BITMAP
0001FF000000
000FFFC00000
001FFFF00000
007FFFF80000
00FFFFFC0000
00FFFFFE0000
01FF87FE0000
01FE01FF0000
03FE01FF0000
03FC00FF0000
03FC00FF0000
03FC00FF0000
03FC00FF0000
03FE01FF0000
03FE01FE0000
01FF03FE0000
01FF87FC0000
00FFDFFC0000
00FFFFF80000
007FFFF00000
003FFFE00000
001FFF800000
001FFF000000
007FFC000000
00FFFE000000
01FFFF000000
03FFFF000000
07FFFF800000
0FFE7FC00100
1FFC7FE00300
3FF83FF00380
3FE01FF807C0
7FC00FF80FE0
7F8007FC1FF0
FF8003FE3FF0
FF0001FF3FE0
FF0001FFFFC0
FF0000FFFF80
FF00007FFF80
FF00003FFF00
FF00001FFE00
FF80001FFC00
7F80003FFC00
7FC000FFFE00
7FE003FFFF00
3FF80FFFFF80
3FFFFFFFFF80
1FFFFFFF7FC0
0FFFFFFC7FE0
07FFFFF83FF0
01FFFFE01FF8
00FFFF800FFC
000FF8000000
ENDCHAR
STARTCHAR quotesingle
ENCODING 39
SWIDTH 163 0
DWIDTH 12 0
BBX 6 20 3 30
BITMAP
FC
FC
FC
FC
FC
FC
FC
FC
FC
FC
FC
FC
FC
FC
FC
FC
FC
FC
FC
FC
ENDCHAR
STARTCHAR parenleft
ENCODING 40
SWIDTH 303 0
DWIDTH 22 0
BBX 14 70 6 -19
BITMAP
00C0
00F8
01FC
01F8
03F8
03F0
07F0
07F0
07E0
0FE0
0FE0
1FC0
1FC0
1FC0
1F80
3F80
3F80
3F80
3F00
7F00
7F00
7F00
7F00
7F00
7F00
FE00
FE00
FE00
FE00
FE00
FE00
FE00
FE00
FE00
FE00
FE00
FE00
FE00
FE00
FE00
FE00
FE00
FE00
FE00
7E00
7E00
7F00
7F00
7F00
7F00
7F00
3F00
3F80
3F80
3F80
1F80
1FC0
1FC0
0FC0
0FC0
0FE0
07E0
07E0
07F0
03F0
03F8
01F8
01FC
00F8
00C0
ENDCHAR
STARTCHAR parenright
ENCODING 41
SWIDTH 303 0
DWIDTH 22 0
BBX 14 70 2 -19
BITMAP
0C00
7C00
FE00
7E00
7F00
3F00
3F80
3F80
1F80
1FC0
1FC0
0FC0
0FE0
0FE0
07E0
07F0
07F0
07F0
07F0
03F8
03F8
03F8
03F8
03F8
03F8
01F8
01FC
01FC
01FC
01FC
01FC
01FC
01FC
01FC
01FC
01FC
01FC
01FC
01FC
01FC
01FC
01FC
01FC
01FC
01F8
03F8
03F8
03F8
03F8
03F8
03F8
03F0
07F0
07F0
07F0
07E0
0FE0
0FE0
0FC0
0FC0
1FC0
1F80
3F80
3F80
3F00
7F00
7E00
FE00
7C00
0C00
ENDCHAR
STARTCHAR asterisk
ENCODING 42
SWIDTH 439 0
DWIDTH 32 0
BBX 25 25 4 26
BITMAP
003E0000
003E0000
003E0000
003E0000
303E0600
3C3E1E00
7E3E3F00
FFBEFF80
7FFFFF00
3FFFFC00
0FFFF000
03FFE000
00FF8000
01FFC000
07FFF000
1FFFFC00
7FFFFF00
FF3EFF80
7E3E3F00
383E0E00
303E0600
003E0000
003E0000
003E0000
003E0000
ENDCHAR
STARTCHAR plus
ENCODING 43
SWIDTH 833 0
DWIDTH 60 0
BBX 42 44 9 0
BITMAP
00003F000000
00003F000000
00003F000000
00003F000000
00003F000000
00003F000000
00003F000000
00003F000000
00003F000000
00003F000000
00003F000000
00003F000000
00003F000000
00003F000000
00003F000000
00003F000000
00003F000000
00003F000000
00003F000000
FFFFFFFFFFC0
FFFFFFFFFFC0
FFFFFFFFFFC0
FFFFFFFFFFC0
FFFFFFFFFFC0
FFFFFFFFFFC0
00003F000000
00003F000000
00003F000000
00003F000000
00003F000000
00003F000000
00003F000000
00003F000000
00003F000000
00003F000000
00003F000000
00003F000000
00003F000000
00003F000000
00003F000000
00003F000000
00003F000000
00003F000000
00003F000000
ENDCHAR
STARTCHAR comma
ENCODING 44
SWIDTH 301 0
DWIDTH 22 0
BBX 14 21 4 -12
BITMAP
0100
03E0
03FC
03FC
07F8
07F8
07F0
0FF0
0FE0
0FE0
1FC0
1F80
3F80
3F00
3F00
7E00
7E00
7C00
FC00
F800
1800
ENDCHAR
STARTCHAR hyphen
ENCODING 45
SWIDTH 404 0
DWIDTH 29 0
BBX 19 7 5 13
BITMAP
FFFFE0
FFFFE0
FFFFE0
FFFFE0
FFFFE0
FFFFE0
FFFFE0
ENDCHAR
STARTCHAR period
ENCODING 46
SWIDTH 301 0
DWIDTH 22 0
BBX 8 8 6 -1
BITMAP
3C
7E
FF
FF
FF
FF
7E
3C
ENDCHAR
STARTCHAR slash
ENCODING 47
SWIDTH 433 0
DWIDTH 31 0
BBX 31 59 0 -8
BITMAP
0000007E
000000FC
000000FC
000000FC
000001F8
000001F8
000003F0
000003F0
000007E0
000007E0
000007E0
00000FC0
00000FC0
00001F80
00001F80
00003F00
00003F00
00003F00
00007E00
00007E00
0000FC00
0000FC00
0001F800
0001F800
0001F800
0003F000
0003F000
0007E000
0007E000
0007C000
000FC000
000FC000
001F8000
001F8000
003F0000
003F0000
003F0000
007E0000
007E0000
00FC0000
00FC0000
01F80000
01F80000
01F80000
03F00000
03F00000
07E00000
07E00000
0FC00000
0FC00000
0FC00000
1F800000
1F800000
3F000000
3F000000
7E000000
7E000000
7E000000
FC000000
ENDCHAR
STARTCHAR zero
ENCODING 48
SWIDTH 604 0
DWIDTH 43 0
BBX 37 53 3 -1
BITMAP
0003FE0000
001FFFC000
007FFFF000
00FFFFF800
01FFFFFC00
03FFFFFE00
07FFFFFF00
07FF03FF80
0FFC01FF80
1FF8007FC0
1FF0007FC0
3FE0003FE0
3FC0001FE0
3FC0001FE0
7FC0001FF0
7F80000FF0
7F80000FF0
7F80000FF0
7F80000FF0
FF000007F8
FF000007F8
FF000007F8
FF000007F8
FF000007F8
FF000007F8
FF000007F8
FF000007F8
FF000007F8
FF000007F8
FF000007F8
FF000007F8
FF000007F8
FF000007F8
FF000007F8
7F80000FF0
7F80000FF0
7F80000FF0
7F80000FF0
7FC0001FF0
3FC0001FE0
3FC0001FE0
3FE0003FE0
1FF0007FC0
1FF0007FC0
0FFC01FF80
0FFF07FF00
07FFFFFF00
03FFFFFE00
01FFFFFC00
00FFFFF800
007FFFF000
001FFFC000
0003FE0000
ENDCHAR
STARTCHAR one
ENCODING 49
SWIDTH 604 0
DWIDTH 43 0
BBX 19 51 8 0
BITMAP
1FFFE0
1FFFE0
3FFFE0
3FFFE0
7FFFE0
7FFFE0
FFFFE0
001FE0
001FE0
001FE0
001FE0
001FE0
001FE0
001FE0
001FE0
001FE0
001FE0
001FE0
001FE0
001FE0
001FE0
001FE0
001FE0
001FE0
001FE0
001FE0
001FE0
001FE0
001FE0
001FE0
001FE0
001FE0
001FE0
001FE0
001FE0
001FE0
001FE0
001FE0
001FE0
001FE0
001FE0
001FE0
001FE0
001FE0
001FE0
001FE0
001FE0
001FE0
001FE0
001FE0
001FE0
ENDCHAR
STARTCHAR two
ENCODING 50
SWIDTH 604 0
DWIDTH 43 0
BBX 34 52 2 0
BITMAP
0007FE0000
003FFFC000
00FFFFF000
03FFFFF800
07FFFFFC00
0FFFFFFE00
1FFFFFFF00
1FFC07FF80
3FF001FF80
3FE000FF80
3FE0007FC0
7FC0007FC0
7F80003FC0
7F80003FC0
7F80003FC0
0000003FC0
0000003FC0
0000003FC0
0000007F80
0000007F80
0000007F80
000000FF80
000000FF00
000001FF00
000003FE00
000003FC00
000007FC00
00000FF800
00001FF800
00003FF000
00003FE000
00007FC000
0000FF8000
0001FF8000
0003FF0000
0007FE0000
0007FC0000
000FF80000
001FF00000
003FF00000
007FE00000
00FFC00000
00FF800000
01FF000000
03FE000000
07FFFFFFC0
0FFFFFFFC0
1FFFFFFFC0
1FFFFFFFC0
3FFFFFFFC0
7FFFFFFFC0
FFFFFFFFC0
ENDCHAR
STARTCHAR three
ENCODING 51
SWIDTH 604 0
DWIDTH 43 0
BBX 34 53 3 -1
BITMAP
0007FE0000
003FFFC000
00FFFFE000
01FFFFF800
03FFFFFC00
07FFFFFE00
0FFFFFFE00
0FFC07FF00
1FF001FF00
1FE000FF00
1FC000FF80
3FC0007F80
3FC0007F80
3FC0007F80
0000007F80
0000007F80
0000007F80
000000FF00
000001FF00
000003FF00
00000FFE00
0001FFFC00
0001FFF800
0001FFF000
0001FFC000
0001FFC000
0001FFF800
0001FFFC00
00000FFE00
000003FF00
000000FF00
0000007F80
0000007F80
0000007F80
0000003FC0
0000003FC0
0000003FC0
0000003FC0
FF00003FC0
FF00003FC0
FF00003FC0
FF80007FC0
7F80007F80
7FC000FF80
7FE001FF80
3FF80FFF00
1FFFFFFF00
1FFFFFFE00
0FFFFFFC00
07FFFFF800
01FFFFE000
007FFF8000
000FFC0000
ENDCHAR
STARTCHAR four
ENCODING 52
SWIDTH 604 0
DWIDTH 43 0
BBX 39 52 1 0
BITMAP
0000000700
0000000700
0000000F00
0000001F00
0000003F00
0000003F00
0000007F00
000000FF00
000000FF00
000001FF00
000003FF00
000003FF00
000007FF00
00000FFF00
00001FFF00
00001FFF00
00003FFF00
00007FFF00
00007EFF00
0000FEFF00
0001FCFF00
0003F8FF00
0003F8FF00
0007F0FF00
000FE0FF00
000FE0FF00
001FC0FF00
003F80FF00
003F80FF00
007F00FF00
00FE00FF00
01FE00FF00
01FC00FF00
03F800FF00
07F000FF00
07F000FF00
0FFFFFFFFE
1FFFFFFFFE
3FFFFFFFFE
3FFFFFFFFE
7FFFFFFFFE
FFFFFFFFFE
000000FF00
000000FF00
000000FF00
000000FF00
000000FF00
000000FF00
000000FF00
000000FF00
000000FF00
000000FF00
ENDCHAR
STARTCHAR five
ENCODING 53
SWIDTH 604 0
DWIDTH 43 0
BBX 36 52 3 -1
BITMAP
007FFFFFC0
007FFFFFC0
007FFFFFC0
00FFFFFFC0
00FFFFFFC0
00FFFFFFC0
00FFFFFFC0
01FC000000
01FC000000
01FC000000
01F8000000
03F8000000
03F8000000
03F0000000
03F0000000
07F1FF0000
07F7FFE000
07FFFFF800
07FFFFFC00
0FFFFFFE00
0FFFFFFF00
0FFFFFFF80
0FF00FFF80
1F8003FFC0
1E0000FFC0
1C00007FE0
0000003FE0
0000001FE0
0000001FF0
0000001FF0
0000000FF0
0000000FF0
0000000FF0
0000000FF0
0000000FF0
0000000FF0
0000000FF0
0000001FF0
0400001FE0
0C00001FE0
0E00003FE0
1F00007FC0
3F8000FFC0
7FE001FF80
FFF80FFF00
7FFFFFFF00
3FFFFFFE00
1FFFFFFC00
0FFFFFF000
03FFFFE000
00FFFF8000
001FF80000
ENDCHAR
STARTCHAR six
ENCODING 54
SWIDTH 604 0
DWIDTH 43 0
BBX 35 55 4 -1
BITMAP
0000040000
00000F0000
00001FC000
00001FE000
00003FE000
00007FC000
00007F8000
0000FF0000
0001FE0000
0003FE0000
0003FC0000
0007F80000
000FF00000
000FF00000
001FE00000
003FC00000
007F800000
007F800000
00FF000000
01FE000000
01FC000000
03FCFE0000
03FFFFC000
07FFFFF000
0FFFFFF800
0FFFFFFC00
1FFFFFFE00
1FFFFFFF00
3FFC07FF80
3FF001FF80
3FE000FFC0
7FC0007FC0
7F80003FC0
7F80003FE0
FF00001FE0
FF00001FE0
FF00001FE0
FF00001FE0
FF00001FE0
FF00001FE0
FF00001FE0
FF00001FE0
FF80003FC0
7F80003FC0
7FC0007FC0
7FE000FF80
3FF001FF80
3FFC07FF00
1FFFFFFF00
0FFFFFFE00
07FFFFFC00
03FFFFF000
01FFFFE000
007FFF8000
000FFC0000
ENDCHAR
STARTCHAR seven
ENCODING 55
SWIDTH 604 0
DWIDTH 43 0
BBX 35 52 5 -1
BITMAP
FFFFFFFFE0
FFFFFFFFC0
FFFFFFFFC0
FFFFFFFF80
FFFFFFFF80
FFFFFFFF00
FFFFFFFF00
000001FE00
000001FE00
000003FC00
000003FC00
000007F800
000007F800
00000FF000
00000FF000
00001FE000
00001FE000
00003FC000
00003FC000
00007F8000
00007F8000
0000FF0000
0000FF0000
0001FE0000
0001FE0000
0001FC0000
0003FC0000
0003F80000
0007F80000
0007F80000
000FF00000
000FF00000
001FE00000
001FE00000
003FC00000
003FC00000
007F800000
007F800000
00FF000000
00FF000000
01FE000000
01FE000000
03FC000000
03FC000000
07F8000000
07F8000000
0FF0000000
0FF0000000
1FE0000000
1FE0000000
07C0000000
00C0000000
ENDCHAR
STARTCHAR eight
ENCODING 56
SWIDTH 604 0
DWIDTH 43 0
BBX 35 53 4 -1
BITMAP
0007FC0000
003FFF8000
00FFFFE000
01FFFFF000
03FFFFF800
07FFFFFC00
0FFFFFFE00
1FFE07FE00
1FF803FF00
1FF001FF00
3FE000FF80
3FC0007F80
3FC0007F80
3FC0007F80
3FC0007F80
3FC0007F80
3FC0007F80
3FC0007F80
1FE000FF00
1FF000FF00
1FF803FF00
0FFC07FE00
07FFFFFC00
03FFFFF800
01FFFFF000
007FFFC000
01FFFFF000
07FFFFFC00
0FFFFFFE00
1FFC07FF00
3FF001FF80
3FC0007F80
7F80003FC0
7F80003FC0
FF80001FC0
FF00001FE0
FF00001FE0
FF00001FE0
FF00001FE0
FF00001FE0
FF00001FE0
FF80003FE0
FF80003FE0
7FC0007FC0
7FF001FFC0
3FFC07FF80
3FFFFFFF80
1FFFFFFF00
0FFFFFFE00
07FFFFFC00
01FFFFF000
007FFFC000
000FFE0000
ENDCHAR
STARTCHAR nine
ENCODING 57
SWIDTH 604 0
DWIDTH 43 0
BBX 35 53 3 -1
BITMAP
0007FE0000
003FFFC000
00FFFFF000
01FFFFF800
07FFFFFC00
0FFFFFFE00
1FFFFFFF00
1FFC07FF80
3FF001FF80
3FE000FFC0
7FC0007FC0
7F80003FC0
7F80003FE0
FF00001FE0
FF00001FE0
FF00001FE0
FF00001FE0
FF00001FE0
FF00001FE0
FF00001FE0
FF00003FE0
FF80003FC0
7F80003FC0
7FC0007FC0
7FE000FF80
3FF001FF80
3FFC07FF80
1FFFFFFF00
0FFFFFFF00
07FFFFFE00
03FFFFFE00
01FFFFFC00
007FFFF800
001FF7F800
000007F000
00000FF000
00001FE000
00001FC000
00003FC000
00007F8000
0000FF0000
0000FF0000
0001FE0000
0003FC0000
0007F80000
0007F00000
000FE00000
001FE00000
001FC00000
003F800000
007F000000
00FE000000
001C000000
ENDCHAR
STARTCHAR colon
ENCODING 58
SWIDTH 329 0
DWIDTH 24 0
BBX 8 33 7 -1
BITMAP
3C
7E
FF
FF
FF
FF
7E
3C
00
00
00
00
00
00
00
00
00
00
00
00
00
00
00
00
00
3C
7E
FF
FF
FF
FF
7E
3C
ENDCHAR
STARTCHAR semicolon
ENCODING 59
SWIDTH 329 0
DWIDTH 24 0
BBX 16 44 4 -12
BITMAP
003C
007E
00FF
00FF
00FF
00FF
007E
003C
0000
0000
0000
0000
0000
0000
0000
0000
0000
0000
0000
0000
0000
0000
0000
00C0
00F0
01FC
01FC
01F8
03F8
03F0
07F0
07E0
0FE0
0FE0
1FC0
1FC0
1F80
3F80
3F00
7F00
7F00
FE00
7E00
0C00
ENDCHAR
STARTCHAR less
ENCODING 60
SWIDTH 833 0
DWIDTH 60 0
BBX 41 40 9 2
BITMAP
000000000080
000000000780
000000001F80
000000007F80
00000003FF80
0000000FFF80
0000003FFF80
000001FFFE00
000007FFF000
00003FFFC000
0000FFFE0000
0003FFF80000
001FFFE00000
007FFF000000
03FFFC000000
0FFFE0000000
3FFF80000000
FFFE00000000
FFF000000000
FFC000000000
FFC000000000
FFF000000000
FFFC00000000
7FFF80000000
0FFFE0000000
03FFFC000000
007FFF000000
001FFFC00000
0007FFF80000
0000FFFE0000
00003FFFC000
000007FFF000
000001FFFE00
0000007FFF80
0000000FFF80
00000003FF80
000000007F80
000000001F80
000000000780
000000000080
ENDCHAR
STARTCHAR equal
ENCODING 61
SWIDTH 833 0
DWIDTH 60 0
BBX 42 21 9 11
BITMAP
FFFFFFFFFFC0
FFFFFFFFFFC0
FFFFFFFFFFC0
FFFFFFFFFFC0
FFFFFFFFFFC0
FFFFFFFFFFC0
000000000000
000000000000
000000000000
000000000000
000000000000
000000000000
000000000000
000000000000
000000000000
FFFFFFFFFFC0
FFFFFFFFFFC0
FFFFFFFFFFC0
FFFFFFFFFFC0
FFFFFFFFFFC0
FFFFFFFFFFC0
ENDCHAR
STARTCHAR greater
ENCODING 62
SWIDTH 833 0
DWIDTH 60 0
BBX 41 40 9 2
BITMAP
800000000000
F00000000000
FC0000000000
FF0000000000
FFE000000000
FFF800000000
FFFF00000000
3FFFC0000000
07FFF0000000
01FFFE000000
007FFF800000
000FFFE00000
0003FFFC0000
00007FFF0000
00001FFFE000
000003FFF800
000000FFFE00
0000003FFF80
00000007FF80
00000001FF80
00000001FF80
00000007FF80
0000001FFF80
000000FFFF00
000003FFF800
00001FFFE000
00007FFF0000
0001FFFC0000
000FFFF00000
003FFF800000
01FFFE000000
07FFF0000000
1FFFC0000000
FFFF00000000
FFF800000000
FFE000000000
FF0000000000
FC0000000000
F00000000000
800000000000
ENDCHAR
STARTCHAR question
ENCODING 63
SWIDTH 543 0
DWIDTH 39 0
BBX 25 53 7 -1
BITMAP
00FF8000
03FFE000
0FFFF800
1FFFFC00
3FFFFE00
3FFFFE00
7F83FF00
7F00FF00
FE007F80
FC003F80
FC003F80
FC003F80
F8003F80
00003F80
00007F80
0000FF80
0003FF00
000FFF00
003FFE00
00FFFC00
01FFF800
07FFE000
0FFF8000
1FFE0000
3FF80000
7FF00000
7FC00000
7F800000
FF000000
FF000000
FE00FE00
FE00FE00
FE00FE00
FE01FE00
FF01FE00
7F83FC00
7FFFFC00
3FFFF800
1FFFF800
0FFFF000
07FFC000
00FF0000
00000000
00000000
00000000
00F00000
01F80000
03FC0000
03FC0000
03FC0000
03FC0000
01F80000
00F00000
ENDCHAR
STARTCHAR at
ENCODING 64
SWIDTH 1000 0
DWIDTH 72 0
BBX 65 62 3 -10
BITMAP
00000007FFC0000000
000000FFFFFE000000
000007FFFFFF800000
00001FFFFFFFF00000
00007FFFFFFFFC0000
0001FFF8007FFE0000
0003FF800007FF0000
0007FC000000FFC000
001FF00000003FE000
003FE00000001FF000
007F8000000007F000
00FF0000000003F800
01FE0000000001FC00
01FC0000000000FC00
03F80000000000FE00
07F000000000007E00
07E00007F000007F00
0FE0003FFC1F003F00
1FC000FFFE3F003F00
1F8001FFFF3F003F00
3F8003FFFF7F001F80
3F0007FC0FFE001F80
3F000FF007FE001F80
7F001FE003FE001F80
7E001FC001FC001F80
7E003F8001FC001F80
7E003F0001FC001F80
FE007F0001FC001F80
FC007E0001F8001F80
FC007E0001F8003F80
FC00FE0003F8003F00
FC00FC0003F8003F00
FC00FC0003F0007F00
FC00FC0003F0007E00
FC00FC0007F000FE00
FC00FC0007F000FC00
FC00FC0007E001FC00
FC00FC000FE003F800
FC00FE001FE007F800
7E00FE003FE00FF000
7E007F007FE03FE000
7E007F81FFFDFFC000
7F003FFFF7FFFF8000
3F003FFFE3FFFF0000
3F801FFFC3FFFC0000
1F8007FF81FFF00000
1FC001FC007F800000
0FC000000000000000
0FE000000000000000
07F000000000000000
03F800000000040000
01FC000000000E0000
01FF000000003F0000
007F80000000FF0000
003FF0000003FE0000
001FFC00001FFC0000
000FFFC001FFF00000
0003FFFFFFFFE00000
0000FFFFFFFF800000
00003FFFFFFC000000
000007FFFFE0000000
0000003FFE00000000
ENDCHAR
STARTCHAR A
ENCODING 65
SWIDTH 662 0
DWIDTH 48 0
BBX 50 51 -1 0
BITMAP
00000080000000
000000C0000000
000000C0000000
000001E0000000
000001E0000000
000003F0000000
000003F0000000
000007F8000000
000007F8000000
00000FFC000000
00000FFC000000
00001FFE000000
00001FFE000000
00003FFF000000
00003FFF000000
00007FFF800000
00007F3F800000
0000FF3FC00000
0000FF3FC00000
0001FE1FE00000
0001FE1FE00000
0003FC0FF00000
0003FC0FF00000
0007FC07F80000
0007F807F80000
000FF803F80000
000FF003FC0000
001FF001FC0000
001FE001FE0000
001FE000FE0000
003FC000FF0000
003FFFFFFF0000
007FFFFFFF8000
007FFFFFFF8000
00FFFFFFFFC000
00FFFFFFFFC000
01FFFFFFFFE000
01FFFFFFFFE000
03FE00001FF000
03FC00000FF000
07FC00000FF800
07F8000007F800
0FF8000007FC00
0FF0000003FC00
1FF0000003FE00
1FE0000001FE00
3FE0000001FF00
3FC0000000FF00
7FC0000000FF80
7F80000000FF80
FF800000007FC0
ENDCHAR
STARTCHAR B
ENCODING 66
SWIDTH 576 0
DWIDTH 41 0
BBX 33 51 6 0
BITMAP
FFFFF80000
FFFFFF0000
FFFFFFC000
FFFFFFE000
FFFFFFF000
FFFFFFF800
FFFFFFF800
FF007FFC00
FF000FFC00
FF0007FC00
FF0003FE00
FF0003FE00
FF0001FE00
FF0001FE00
FF0001FE00
FF0001FE00
FF0001FE00
FF0001FC00
FF0003FC00
FF0007FC00
FF000FF800
FF007FF000
FFFFFFE000
FFFFFF8000
FFFFFF0000
FFFFFFE000
FFFFFFF000
FFFFFFFC00
FF001FFC00
FF0003FE00
FF0001FF00
FF0000FF00
FF0000FF00
FF00007F80
FF00007F80
FF00007F80
FF00007F80
FF00007F80
FF00007F80
FF0000FF80
FF0000FF80
FF0001FF00
FF0007FF00
FF001FFE00
FFFFFFFE00
FFFFFFFC00
FFFFFFFC00
FFFFFFF000
FFFFFFE000
FFFFFF8000
FFFFFC0000
ENDCHAR
STARTCHAR C
ENCODING 67
SWIDTH 717 0
DWIDTH 52 0
BBX 44 53 4 -1
BITMAP
000003FF8000
00003FFFF800
0001FFFFFE00
0007FFFFFF80
000FFFFFFFE0
003FFFFFFFF0
007FFFFFFFF0
00FFFE00FFF0
01FFE0000FF0
03FF800003F0
07FF000000F0
0FFC00000070
0FF800000010
1FF000000000
1FF000000000
3FE000000000
3FC000000000
7FC000000000
7F8000000000
7F8000000000
7F8000000000
FF8000000000
FF0000000000
FF0000000000
FF0000000000
FF0000000000
FF0000000000
FF0000000000
FF0000000000
FF0000000000
FF0000000000
FF0000000000
7F8000000000
7F8000000000
7F8000000000
7FC000000000
3FC000000000
3FE000000000
1FF000000000
1FF000000020
0FF800000020
0FFC00000060
07FE000001E0
03FF800007E0
01FFE0001FE0
00FFFC00FFE0
007FFFFFFFE0
003FFFFFFFE0
001FFFFFFFE0
0007FFFFFF80
0001FFFFFE00
00003FFFF800
000003FF8000
ENDCHAR
STARTCHAR D
ENCODING 68
SWIDTH 740 0
DWIDTH 53 0
BBX 44 51 6 0
BITMAP
FFFFFE000000
FFFFFFF00000
FFFFFFFE0000
FFFFFFFF8000
FFFFFFFFC000
FFFFFFFFF000
FFFFFFFFF800
FF0001FFFC00
FF00003FFE00
FF000007FE00
FF000003FF00
FF000001FF80
FF000000FF80
FF0000007FC0
FF0000007FC0
FF0000003FC0
FF0000003FE0
FF0000001FE0
FF0000001FE0
FF0000001FE0
FF0000000FF0
FF0000000FF0
FF0000000FF0
FF0000000FF0
FF0000000FF0
FF0000000FF0
FF0000000FF0
FF0000000FF0
FF0000000FF0
FF0000000FF0
FF0000000FF0
FF0000001FE0
FF0000001FE0
FF0000001FE0
FF0000003FE0
FF0000003FC0
FF0000007FC0
FF0000007FC0
FF000000FF80
FF000001FF80
FF000003FF00
FF000007FE00
FF00001FFE00
FF0001FFFC00
FFFFFFFFF800
FFFFFFFFF000
FFFFFFFFC000
FFFFFFFF8000
FFFFFFFE0000
FFFFFFF80000
FFFFFE000000
ENDCHAR
STARTCHAR E
ENCODING 69
SWIDTH 532 0
DWIDTH 38 0
BBX 29 51 6 0
BITMAP
FFFFFFF8
FFFFFFF8
FFFFFFF8
FFFFFFF8
FFFFFFF8
FFFFFFF8
FFFFFFF8
FF000000
FF000000
FF000000
FF000000
FF000000
FF000000
FF000000
FF000000
FF000000
FF000000
FF000000
FF000000
FF000000
FFFFFFF8
FFFFFFF8
FFFFFFF8
FFFFFFF8
FFFFFFF8
FFFFFFF8
FFFFFFF8
FF000000
FF000000
FF000000
FF000000
FF000000
FF000000
FF000000
FF000000
FF000000
FF000000
FF000000
FF000000
FF000000
FF000000
FF000000
FF000000
FF000000
FFFFFFF8
FFFFFFF8
FFFFFFF8
FFFFFFF8
FFFFFFF8
FFFFFFF8
FFFFFFF8
ENDCHAR
STARTCHAR F
ENCODING 70
SWIDTH 524 0
DWIDTH 38 0
BBX 29 51 6 0
BITMAP
FFFFFFF8
FFFFFFF8
FFFFFFF8
FFFFFFF8
FFFFFFF8
FFFFFFF8
FFFFFFF8
FF000000
FF000000
FF000000
FF000000
FF000000
FF000000
FF000000
FF000000
FF000000
FF000000
FF000000
FF000000
FF000000
FFFFFFF8
FFFFFFF8
FFFFFFF8
FFFFFFF8
FFFFFFF8
FFFFFFF8
FFFFFFF8
FF000000
FF000000
FF000000
FF000000
FF000000
FF000000
FF000000
FF000000
FF000000
FF000000
FF000000
FF000000
FF000000
FF000000
FF000000
FF000000
FF000000
FF000000
FF000000
FF000000
FF000000
FF000000
FF000000
FF000000
ENDCHAR
STARTCHAR G
ENCODING 71
SWIDTH 803 0
DWIDTH 58 0
BBX 51 53 4 -1
BITMAP
000003FF800000
00003FFFF80000
0001FFFFFF0000
0007FFFFFF8000
000FFFFFFFE000
003FFFFFFFF000
007FFFFFFFF800
00FFFE00FFFE00
01FFE0001FFC00
03FF800007F800
07FF000003F000
0FFC000001E000
0FF80000008000
1FF00000000000
1FF00000000000
3FE00000000000
3FC00000000000
7FC00000000000
7F800000000000
7F800000000000
7F800000000000
FF000000000000
FF000000000000
FF000000000000
FF000000000000
FF000000000000
FF000003FFFFE0
FF000003FFFFE0
FF000003FFFFE0
FF000003FFFFE0
FF000003FFFFE0
FF800003FFFFE0
7F800003FFFFE0
7F800000001FE0
7F800000001FE0
7FC00000001FE0
3FC00000001FC0
3FE00000003FC0
1FF00000003FC0
1FF00000003FC0
0FF80000007F80
0FFC000000FF80
07FF000001FF00
03FF800003FF00
03FFE0000FFE00
01FFFE007FFC00
00FFFFFFFFFC00
003FFFFFFFF000
001FFFFFFFE000
0007FFFFFFC000
0003FFFFFF0000
00007FFFFC0000
000007FF800000
ENDCHAR
STARTCHAR H
ENCODING 72
SWIDTH 748 0
DWIDTH 54 0
BBX 42 51 6 0
BITMAP
FF0000003FC0
FF0000003FC0
FF0000003FC0
FF0000003FC0
FF0000003FC0
FF0000003FC0
FF0000003FC0
FF0000003FC0
FF0000003FC0
FF0000003FC0
FF0000003FC0
FF0000003FC0
FF0000003FC0
FF0000003FC0
FF0000003FC0
FF0000003FC0
FF0000003FC0
FF0000003FC0
FF0000003FC0
FFFFFFFFFFC0
FFFFFFFFFFC0
FFFFFFFFFFC0
FFFFFFFFFFC0
FFFFFFFFFFC0
FFFFFFFFFFC0
FFFFFFFFFFC0
FF0000003FC0
FF0000003FC0
FF0000003FC0
FF0000003FC0
FF0000003FC0
FF0000003FC0
FF0000003FC0
FF0000003FC0
FF0000003FC0
FF0000003FC0
FF0000003FC0
FF0000003FC0
FF0000003FC0
FF0000003FC0
FF0000003FC0
FF0000003FC0
FF0000003FC0
FF0000003FC0
FF0000003FC0
FF0000003FC0
FF0000003FC0
FF0000003FC0
FF0000003FC0
FF0000003FC0
FF0000003FC0
ENDCHAR
STARTCHAR I
ENCODING 73
SWIDTH 285 0
DWIDTH 21 0
BBX 8 51 6 0
BITMAP
FF
FF
FF
FF
FF
FF
FF
FF
FF
FF
FF
FF
FF
FF
FF
FF
FF
FF
FF
FF
FF
FF
FF
FF
FF
FF
FF
FF
FF
FF
FF
FF
FF
FF
FF
FF
FF
FF
FF
FF
FF
FF
FF
FF
FF
FF
FF
FF
FF
FF
FF
ENDCHAR
STARTCHAR J
ENCODING 74
SWIDTH 394 0
DWIDTH 28 0
BBX 23 52 0 -1
BITMAP
0001FE
0001FE
0001FE
0001FE
0001FE
0001FE
0001FE
0001FE
0001FE
0001FE
0001FE
0001FE
0001FE
0001FE
0001FE
0001FE
0001FE
0001FE
0001FE
0001FE
0001FE
0001FE
0001FE
0001FE
0001FE
0001FE
0001FE
0001FE
0001FE
0001FE
0001FE
0001FE
0001FE
0001FE
0001FE
0001FE
0001FE
0001FE
0001FE
0001FE
0001FE
0001FE
0403FE
0E03FE
1F07FE
3FFFFC
7FFFFC
FFFFF8
7FFFF8
1FFFF0
0FFFC0
01FF00
ENDCHAR
STARTCHAR K
ENCODING 75
SWIDTH 620 0
DWIDTH 45 0
BBX 40 51 6 0
BITMAP
FF00001FFC
FF00003FF0
FF00007FE0
FF0000FFC0
FF0001FF80
FF0003FF00
FF0007FF00
FF000FFE00
FF001FFC00
FF003FF800
FF003FF000
FF007FE000
FF00FFC000
FF01FF8000
FF03FF0000
FF07FE0000
FF0FFC0000
FF1FF80000
FF3FF00000
FF7FF00000
FF7FE00000
FFFFC00000
FFFF800000
FFFF800000
FFFFC00000
FFFFE00000
FF7FF00000
FF3FF80000
FF1FF80000
FF0FFC0000
FF0FFE0000
FF07FF0000
FF03FF8000
FF01FFC000
FF00FFC000
FF00FFE000
FF007FF000
FF003FF800
FF001FFC00
FF000FFC00
FF000FFE00
FF0007FF00
FF0003FF80
FF0001FFC0
FF0000FFE0
FF0000FFE0
FF00007FF0
FF00003FF8
FF00001FFC
FF00000FFE
FF00000FFF
ENDCHAR
STARTCHAR L
ENCODING 76
SWIDTH 470 0
DWIDTH 34 0
BBX 27 51 6 0
BITMAP
FF000000
FF000000
FF000000
FF000000
FF000000
FF000000
FF000000
FF000000
FF000000
FF000000
FF000000
FF000000
FF000000
FF000000
FF000000
FF000000
FF000000
FF000000
FF000000
FF000000
FF000000
FF000000
FF000000
FF000000
FF000000
FF000000
FF000000
FF000000
FF000000
FF000000
FF000000
FF000000
FF000000
FF000000
FF000000
FF000000
FF000000
FF000000
FF000000
FF000000
FF000000
FF000000
FF000000
FF000000
FFFFFFE0
FFFFFFE0
FFFFFFE0
FFFFFFE0
FFFFFFE0
FFFFFFE0
FFFFFFE0
ENDCHAR
STARTCHAR M
ENCODING 77
SWIDTH 862 0
DWIDTH 62 0
BBX 60 52 1 -1
BITMAP
0010000000010000
0008000000010000
0018000000030000
001C000000030000
001C000000078000
001E000000078000
001E000000078000
003F0000000F8000
003F0000000FC000
003F8000001FC000
003F8000001FC000
007FC000003FC000
007FC000003FE000
007FE000007FE000
007FE000007FE000
00FFF00000FFE000
00FFF00000FFF000
00FFF80001FFF000
00FFF80001FFF000
01FFFC0003FFF000
01FFFC0003FFF800
01FFFE0007FBF800
01FDFE0007FBF800
01FDFF000FFBF800
03FCFF000FF3FC00
03F8FF801FF3FC00
03F87F801FF1FC00
03F87FC03FE1FC00
07F83FC03FE1FE00
07F83FE03FC1FE00
07F01FE07F81FE00
07F01FE07F80FE00
0FF00FF0FF00FF00
0FF00FF0FF00FF00
0FE007F9FE00FF00
0FE007F9FE007F00
1FE003FFFC007F00
1FE003FFFC007F80
1FC001FFF8007F80
1FC001FFF8003F80
3FC000FFF0003F80
3FC000FFF0003FC0
3FC0007FE0003FC0
3F80003FE0001FC0
3F80003FC0001FC0
7F80001F80001FE0
7F80001F80001FE0
7F00000F00001FE0
7F00000F00000FE0
FF00000600000FF0
FF00000600000FF0
0000000400000000
ENDCHAR
STARTCHAR N
ENCODING 78
SWIDTH 803 0
DWIDTH 58 0
BBX 46 53 6 -1
BITMAP
800000000000
C000000003FC
E000000003FC
F000000003FC
F800000003FC
FC00000003FC
FE00000003FC
FF00000003FC
FF80000003FC
FFC0000003FC
FFE0000003FC
FFF0000003FC
FFF8000003FC
FFFE000003FC
FFFF000003FC
FFFF800003FC
FFFFC00003FC
FF7FE00003FC
FF7FF00003FC
FF3FF80003FC
FF1FFC0003FC
FF0FFE0003FC
FF07FF0003FC
FF03FF8003FC
FF01FFC003FC
FF00FFF003FC
FF007FF803FC
FF001FFC03FC
FF000FFE03FC
FF0007FF03FC
FF0003FF83FC
FF0001FFC3FC
FF0000FFE3FC
FF00007FF3FC
FF00003FF3FC
FF00001FFBFC
FF00000FFFFC
FF000007FFFC
FF000003FFFC
FF000001FFFC
FF0000007FFC
FF0000003FFC
FF0000001FFC
FF0000000FFC
FF00000007FC
FF00000003FC
FF00000001FC
FF00000000FC
FF000000007C
FF000000003C
FF000000001C
FF000000000C
000000000004
ENDCHAR
STARTCHAR O
ENCODING 79
SWIDTH 866 0
DWIDTH 62 0
BBX 55 53 4 -1
BITMAP
000003FF800000
00003FFFF80000
0000FFFFFE0000
0003FFFFFF8000
000FFFFFFFE000
001FFFFFFFF000
007FFFFFFFFC00
00FFFE00FFFE00
01FFF0001FFF00
03FFC00007FF80
07FF000001FF80
07FE000000FFC0
0FFC0000007FE0
1FF80000003FF0
1FF00000001FF0
3FE00000000FF8
3FE00000000FF8
3FC000000007F8
7FC000000007FC
7F8000000003FC
7F8000000003FC
FF8000000003FE
FF0000000001FE
FF0000000001FE
FF0000000001FE
FF0000000001FE
FF0000000001FE
FF0000000001FE
FF0000000001FE
FF0000000001FE
FF0000000001FE
FF8000000003FE
7F8000000003FC
7F8000000003FC
7FC000000007FC
3FC000000007F8
3FE00000000FF8
3FE00000000FF8
1FF00000001FF0
1FF80000003FE0
0FFC0000007FE0
07FE000000FFC0
07FF000001FF80
03FFC00007FF80
01FFF0001FFF00
00FFFE00FFFE00
007FFFFFFFFC00
001FFFFFFFF000
000FFFFFFFE000
0003FFFFFF8000
0000FFFFFE0000
00003FFFF80000
000003FF800000
ENDCHAR
STARTCHAR P
ENCODING 80
SWIDTH 532 0
DWIDTH 38 0
BBX 31 51 6 0
BITMAP
FFFFF800
FFFFFF00
FFFFFFC0
FFFFFFE0
FFFFFFF0
FFFFFFF8
FFFFFFF8
FF007FFC
FF000FFC
FF0007FC
FF0003FE
FF0001FE
FF0001FE
FF0001FE
FF0001FE
FF0001FE
FF0001FE
FF0003FE
FF0003FC
FF000FFC
FF007FFC
FFFFFFF8
FFFFFFF8
FFFFFFF0
FFFFFFE0
FFFFFFC0
FFFFFF00
FFFFF000
FF000000
FF000000
FF000000
FF000000
FF000000
FF000000
FF000000
FF000000
FF000000
FF000000
FF000000
FF000000
FF000000
FF000000
FF000000
FF000000
FF000000
FF000000
FF000000
FF000000
FF000000
FF000000
FF000000
ENDCHAR
STARTCHAR Q
ENCODING 81
SWIDTH 866 0
DWIDTH 62 0
BBX 58 57 4 -5
BITMAP
000003FF80000000
00003FFFF8000000
0000FFFFFE000000
0003FFFFFF800000
000FFFFFFFE00000
001FFFFFFFF00000
007FFFFFFFF80000
00FFFE00FFFE0000
01FFF0001FFF0000
03FFC00007FF8000
07FF000001FF8000
07FE000000FFC000
0FFC0000007FE000
1FF80000003FE000
1FF00000001FF000
3FE00000000FF000
3FE00000000FF800
3FC000000007F800
7FC000000007FC00
7F8000000003FC00
7F8000000003FC00
FF8000000003FC00
FF0000000001FE00
FF0000000001FE00
FF0000000001FE00
FF0000000001FE00
FF0000000001FE00
FF0000000001FE00
FF0000000001FE00
FF0000000001FE00
FF0000000001FE00
FF8000000003FE00
7F8000000003FC00
7F8000000003FC00
7FC0001FFC07FC00
3FC0000FFE07FC00
3FE00007FF0FF800
3FE00003FF8FF800
1FF00001FF9FF800
1FF80000FFFFF000
0FFC00007FFFF000
07FE00003FFFE000
03FF00001FFFC000
03FFC0000FFFC000
01FFF0001FFF8000
00FFFE00FFFF0000
007FFFFFFFFF8000
001FFFFFFFFFC000
000FFFFFFFFFE000
0003FFFFFFFFF000
0000FFFFFF1FF800
00003FFFFC0FF800
000003FF8007FC00
000000000003FE00
000000000001FF00
000000000001FF80
000000000000FFC0
ENDCHAR
STARTCHAR R
ENCODING 82
SWIDTH 560 0
DWIDTH 40 0
BBX 35 51 6 0
BITMAP
FFFFE00000
FFFFFC0000
FFFFFF0000
FFFFFF8000
FFFFFFC000
FFFFFFE000
FFFFFFE000
FF00FFF000
FF003FF000
FF000FF000
FF000FF800
FF0007F800
FF0007F800
FF0007F800
FF0007F800
FF0007F800
FF0007F800
FF000FF800
FF000FF000
FF001FF000
FF00FFF000
FFFFFFE000
FFFFFFE000
FFFFFFC000
FFFFFF8000
FFFFFF0000
FFFFF80000
FFFFC00000
FF7FC00000
FF3FC00000
FF1FE00000
FF0FF00000
FF0FF80000
FF07FC0000
FF03FC0000
FF01FE0000
FF01FF0000
FF00FF8000
FF007F8000
FF007FC000
FF003FE000
FF001FF000
FF000FF000
FF000FF800
FF0007FC00
FF0003FE00
FF0001FF00
FF0001FF00
FF0000FF80
FF00007FC0
FF00003FE0
ENDCHAR
STARTCHAR S
ENCODING 83
SWIDTH 548 0
DWIDTH 40 0
BBX 34 53 2 -1
BITMAP
0007FE0000
003FFFC000
00FFFFF000
01FFFFF800
03FFFFFC00
07FFFFFE00
0FFFFFFF00
1FFE07FF00
1FF001FF80
1FE000FE00
3FE0007800
3FC0002000
3FC0000000
3FC0000000
3FC0000000
3FE0000000
3FE0000000
3FF0000000
1FF8000000
1FFE000000
0FFF800000
07FFE00000
07FFF80000
01FFFE0000
00FFFF8000
007FFFE000
001FFFF000
0007FFF800
0001FFFE00
00007FFE00
00001FFF00
000007FF80
000003FF80
000000FF80
0000007FC0
0000007FC0
0000003FC0
0000003FC0
0200003FC0
0E00003FC0
3F00003FC0
FF00007FC0
FF80007F80
7FC000FF80
7FE001FF00
3FFC07FF00
3FFFFFFE00
1FFFFFFE00
0FFFFFFC00
07FFFFF000
03FFFFE000
00FFFF8000
001FFC0000
ENDCHAR
STARTCHAR T
ENCODING 84
SWIDTH 508 0
DWIDTH 37 0
BBX 36 51 1 0
BITMAP
FFFFFFFFF0
FFFFFFFFF0
FFFFFFFFF0
FFFFFFFFF0
FFFFFFFFF0
FFFFFFFFF0
FFFFFFFFF0
0003FC0000
0003FC0000
0003FC0000
0003FC0000
0003FC0000
0003FC0000
0003FC0000
0003FC0000
0003FC0000
0003FC0000
0003FC0000
0003FC0000
0003FC0000
0003FC0000
0003FC0000
0003FC0000
0003FC0000
0003FC0000
0003FC0000
0003FC0000
0003FC0000
0003FC0000
0003FC0000
0003FC0000
0003FC0000
0003FC0000
0003FC0000
0003FC0000
0003FC0000
0003FC0000
0003FC0000
0003FC0000
0003FC0000
0003FC0000
0003FC0000
0003FC0000
0003FC0000
0003FC0000
0003FC0000
0003FC0000
0003FC0000
0003FC0000
0003FC0000
0003FC0000
ENDCHAR
STARTCHAR U
ENCODING 85
SWIDTH 744 0
DWIDTH 54 0
BBX 42 52 6 -1
BITMAP
FF0000003FC0
FF0000003FC0
FF0000003FC0
FF0000003FC0
FF0000003FC0
FF0000003FC0
FF0000003FC0
FF0000003FC0
FF0000003FC0
FF0000003FC0
FF0000003FC0
FF0000003FC0
FF0000003FC0
FF0000003FC0
FF0000003FC0
FF0000003FC0
FF0000003FC0
FF0000003FC0
FF0000003FC0
FF0000003FC0
FF0000003FC0
FF0000003FC0
FF0000003FC0
FF0000003FC0
FF0000003FC0
FF0000003FC0
FF0000003FC0
FF0000003FC0
FF0000003FC0
FF0000003FC0
FF0000003FC0
FF0000003FC0
FF0000003FC0
FF0000003FC0
FF0000003FC0
FF0000003FC0
FF8000007FC0
FF8000007FC0
7F8000007F80
7FC00000FF80
7FC00000FF80
3FE00001FF00
3FF00003FF00
1FFC000FFE00
1FFF807FFE00
0FFFFFFFFC00
07FFFFFFF800
03FFFFFFF000
01FFFFFFE000
007FFFFF8000
001FFFFE0000
0001FFE00000
ENDCHAR
STARTCHAR V
ENCODING 86
SWIDTH 618 0
DWIDTH 45 0
BBX 46 52 -1 -1
BITMAP
FF80000007FC
7FC0000007F8
7FC000000FF8
3FC000000FF0
3FE000001FF0
3FE000001FF0
1FF000001FE0
1FF000003FE0
0FF800003FC0
0FF800007FC0
07F800007F80
07FC00007F80
03FC0000FF80
03FE0000FF00
03FE0001FF00
01FE0001FE00
01FF0003FE00
00FF0003FC00
00FF8003FC00
007F8007F800
007FC007F800
003FC00FF800
003FC00FF000
003FE01FF000
001FE01FE000
001FF01FE000
000FF03FC000
000FF83FC000
0007F87F8000
0007F87F8000
0003FC7F8000
0003FCFF0000
0003FCFF0000
0001FEFE0000
0001FFFE0000
0000FFFC0000
0000FFFC0000
00007FFC0000
00007FF80000
00003FF80000
00003FF00000
00003FF00000
00001FE00000
00001FE00000
00000FC00000
00000FC00000
000007C00000
000007800000
000003800000
000003000000
000003000000
000002000000
ENDCHAR
STARTCHAR W
ENCODING 87
SWIDTH 938 0
DWIDTH 68 0
BBX 68 53 0 -1
BITMAP
000000004000000000
FF0000004000001FF0
7F8000006000001FE0
7F800000E000001FE0
7F800000F000003FE0
3FC00000F000003FC0
3FC00001F000003FC0
3FE00001F800007FC0
1FE00003F800007F80
1FE00003FC0000FF80
0FF00003FC0000FF00
0FF00007FC0000FF00
0FF00007FE0001FF00
07F8000FFE0001FE00
07F8000FFF0001FE00
07FC000FFF0003FC00
03FC001FFF8003FC00
03FC001FFF8007FC00
01FE003FBF8007F800
01FE003FBFC007F800
01FE003F9FC00FF800
00FF007F9FE00FF000
00FF007F1FE00FF000
007F80FF0FE01FE000
007F80FE0FF01FE000
007F80FE0FF03FE000
003FC1FE07F83FC000
003FC1FC07F83FC000
003FC1FC03F87F8000
001FE3F803FC7F8000
001FE3F801FC7F8000
000FF3F801FCFF0000
000FF7F001FEFF0000
000FF7F000FEFF0000
0007F7E000FEFE0000
0007FFE0007FFE0000
0007FFE0007FFC0000
0003FFC0003FFC0000
0003FFC0003FFC0000
0001FF80003FF80000
0001FF80001FF80000
0001FF00001FF00000
0000FF00000FF00000
0000FF00000FF00000
0000FE00000FE00000
00007E000007E00000
00007C000007E00000
00003C000003C00000
00003C000003C00000
000038000001800000
000018000001800000
000010000001800000
000010000001000000
ENDCHAR
STARTCHAR X
ENCODING 88
SWIDTH 571 0
DWIDTH 41 0
BBX 41 51 0 0
BITMAP
3FE00001FF00
1FF00001FE00
1FF00003FC00
0FF80007FC00
07F80007F800
07FC000FF800
03FE001FF000
01FE001FE000
01FF003FE000
00FF003FC000
00FF807FC000
007FC0FF8000
003FC0FF0000
003FE1FF0000
001FE3FE0000
001FF3FC0000
000FF7FC0000
0007FFF80000
0007FFF80000
0003FFF00000
0003FFE00000
0001FFE00000
0000FFC00000
0000FF800000
00007F800000
0000FFC00000
0001FFC00000
0001FFE00000
0003FFF00000
0007FFF00000
0007FFF80000
000FFFF80000
000FF7FC0000
001FF3FE0000
003FE3FE0000
003FC1FF0000
007FC1FF0000
00FF80FF8000
00FF807FC000
01FF007FC000
01FE003FE000
03FE003FE000
07FC001FF000
07FC001FF800
0FF8000FF800
1FF00007FC00
1FF00007FC00
3FE00003FE00
3FC00003FF00
7FC00001FF00
FF800000FF80
ENDCHAR
STARTCHAR Y
ENCODING 89
SWIDTH 592 0
DWIDTH 43 0
BBX 43 51 0 0
BITMAP
FF8000003FE0
7FC000003FC0
3FC000007F80
3FE00000FF80
1FE00000FF00
1FF00001FE00
0FF80003FE00
07F80003FC00
07FC0007F800
03FC000FF800
03FE000FF000
01FF001FF000
00FF003FE000
00FF803FC000
007F807FC000
003FC0FF8000
003FE0FF0000
001FE1FF0000
001FF1FE0000
000FF3FC0000
0007FBFC0000
0007FFF80000
0003FFF00000
0003FFF00000
0001FFE00000
0000FFC00000
0000FFC00000
00007F800000
00007F800000
00007F800000
00007F800000
00007F800000
00007F800000
00007F800000
00007F800000
00007F800000
00007F800000
00007F800000
00007F800000
00007F800000
00007F800000
00007F800000
00007F800000
00007F800000
00007F800000
00007F800000
00007F800000
00007F800000
00007F800000
00007F800000
00007F800000
ENDCHAR
STARTCHAR Z
ENCODING 90
SWIDTH 576 0
DWIDTH 41 0
BBX 39 51 1 0
BITMAP
0FFFFFFFFE
0FFFFFFFFC
0FFFFFFFF8
0FFFFFFFF8
0FFFFFFFF0
0FFFFFFFE0
0FFFFFFFE0
0000003FC0
0000007FC0
000000FF80
000000FF80
000001FF00
000001FE00
000003FE00
000003FC00
000007FC00
00000FF800
00000FF000
00001FF000
00001FE000
00003FE000
00007FC000
00007FC000
0000FF8000
0000FF0000
0001FF0000
0003FE0000
0003FE0000
0007FC0000
0007F80000
000FF80000
001FF00000
001FF00000
003FE00000
003FE00000
007FC00000
007F800000
00FF800000
01FF000000
01FF000000
03FE000000
03FC000000
07FC000000
0FF8000000
0FFFFFFFFE
1FFFFFFFFE
1FFFFFFFFE
3FFFFFFFFE
7FFFFFFFFE
7FFFFFFFFE
FFFFFFFFFE
ENDCHAR
STARTCHAR bracketleft
ENCODING 91
SWIDTH 303 0
DWIDTH 22 0
BBX 13 67 7 -16
BITMAP
FFF8
FFF8
FFF8
FFF8
FFF8
FE00
FE00
FE00
FE00
FE00
FE00
FE00
FE00
FE00
FE00
FE00
FE00
FE00
FE00
FE00
FE00
FE00
FE00
FE00
FE00
FE00
FE00
FE00
FE00
FE00
FE00
FE00
FE00
FE00
FE00
FE00
FE00
FE00
FE00
FE00
FE00
FE00
FE00
FE00
FE00
FE00
FE00
FE00
FE00
FE00
FE00
FE00
FE00
FE00
FE00
FE00
FE00
FE00
FE00
FE00
FE00
FE00
FFF8
FFF8
FFF8
FFF8
FFF8
ENDCHAR
STARTCHAR backslash
ENCODING 92
SWIDTH 433 0
DWIDTH 31 0
BBX 31 59 0 -8
BITMAP
FC000000
7E000000
7E000000
7E000000
3F000000
3F000000
1F800000
1F800000
0FC00000
0FC00000
0FC00000
07E00000
07E00000
03F00000
03F00000
01F80000
01F80000
01F80000
00FC0000
00FC0000
007E0000
007E0000
003F0000
003F0000
003F0000
001F8000
001F8000
000FC000
000FC000
0007C000
0007E000
0007E000
0003F000
0003F000
0001F800
0001F800
0001F800
0000FC00
0000FC00
00007E00
00007E00
00003F00
00003F00
00003F00
00001F80
00001F80
00000FC0
00000FC0
000007E0
000007E0
000007E0
000003F0
000003F0
000001F8
000001F8
000000FC
000000FC
000000FC
0000007E
ENDCHAR
STARTCHAR bracketright
ENCODING 93
SWIDTH 303 0
DWIDTH 22 0
BBX 13 67 2 -16
BITMAP
FFF8
FFF8
FFF8
FFF8
FFF8
03F8
03F8
03F8
03F8
03F8
03F8
03F8
03F8
03F8
03F8
03F8
03F8
03F8
03F8
03F8
03F8
03F8
03F8
03F8
03F8
03F8
03F8
03F8
03F8
03F8
03F8
03F8
03F8
03F8
03F8
03F8
03F8
03F8
03F8
03F8
03F8
03F8
03F8
03F8
03F8
03F8
03F8
03F8
03F8
03F8
03F8
03F8
03F8
03F8
03F8
03F8
03F8
03F8
03F8
03F8
03F8
03F8
FFF8
FFF8
FFF8
FFF8
FFF8
ENDCHAR
STARTCHAR asciicircum
ENCODING 94
SWIDTH 1000 0
DWIDTH 72 0
BBX 43 20 15 31
BITMAP
00007FC00000
0000FFE00000
0001FFF00000
0001FFF00000
0003FFF80000
0007FFFC0000
000FFBFE0000
001FF1FF0000
003FE0FF8000
007FC07FC000
00FF803FE000
01FF001FF000
01FE000FF000
03FC0007F800
07F80003FC00
0FF00001FE00
1FE00000FF00
3FC000007F80
7F8000003FC0
FF0000001FE0
ENDCHAR
STARTCHAR underscore
ENCODING 95
SWIDTH 500 0
DWIDTH 36 0
BBX 36 6 0 -17
BITMAP
FFFFFFFFF0
FFFFFFFFF0
FFFFFFFFF0
FFFFFFFFF0
FFFFFFFFF0
FFFFFFFFF0
ENDCHAR
STARTCHAR grave
ENCODING 96
SWIDTH 500 0
DWIDTH 36 0
BBX 15 10 8 38
BITMAP
FF00
3F80
1FC0
0FE0
07E0
03F0
01F8
00F8
007C
003E
ENDCHAR
STARTCHAR a
ENCODING 97
SWIDTH 582 0
DWIDTH 42 0
BBX 34 35 3 -1
BITMAP
001FE00000
00FFFC3FC0
01FFFE3FC0
07FFFF3FC0
0FFFFFBFC0
0FFFFFFFC0
1FFC0FFFC0
3FF003FFC0
3FE001FFC0
7FC000FFC0
7FC0007FC0
7F80007FC0
FF80003FC0
FF00003FC0
FF00003FC0
FF00003FC0
FF00003FC0
FF00003FC0
FF00003FC0
FF00003FC0
FF00003FC0
FF00003FC0
FF80007FC0
7F80007FC0
7F80007FC0
7FC000FFC0
3FE001FFC0
3FF003FFC0
1FFC0FFFC0
1FFFFFFFC0
0FFFFFFFC0
07FFFFBFC0
03FFFE3FC0
00FFFC3FC0
001FE00000
ENDCHAR
STARTCHAR b
ENCODING 98
SWIDTH 582 0
DWIDTH 42 0
BBX 34 56 5 -1
BITMAP
FF00000000
FF00000000
FF00000000
FF00000000
FF00000000
FF00000000
FF00000000
FF00000000
FF00000000
FF00000000
FF00000000
FF00000000
FF00000000
FF00000000
FF00000000
FF00000000
FF00000000
FF00000000
FF00000000
FF00000000
FF00000000
FF01FE0000
FF0FFFC000
FF1FFFE000
FF3FFFF800
FF7FFFFC00
FFFFFFFC00
FFFC0FFE00
FFF003FF00
FFE001FF00
FFC000FF80
FF8000FF80
FF80007F80
FF00007FC0
FF00003FC0
FF00003FC0
FF00003FC0
FF00003FC0
FF00003FC0
FF00003FC0
FF00003FC0
FF00003FC0
FF00003FC0
FF80007FC0
FF80007F80
FF80007F80
FFC000FF80
FFE001FF00
FFF003FF00
FFFC0FFE00
FFFFFFFE00
FFFFFFFC00
FF7FFFF800
FF1FFFF000
FF0FFFC000
0001FE0000
ENDCHAR
STARTCHAR c
ENCODING 99
SWIDTH 454 0
DWIDTH 33 0
BBX 27 35 3 -1
BITMAP
0007FE00
003FFFC0
00FFFFE0
01FFFFE0
07FFFFE0
0FFFFFE0
1FFE07E0
1FF801E0
3FE00060
3FC00020
7FC00020
7F800000
7F800000
FF000000
FF000000
FF000000
FF000000
FF000000
FF000000
FF000000
FF000000
FF000000
7F800000
7F800000
7FC00000
3FC00020
3FE00020
1FF800E0
1FFE03E0
0FFFFFE0
07FFFFE0
03FFFFE0
00FFFFE0
003FFFC0
0007FE00
ENDCHAR
STARTCHAR d
ENCODING 100
SWIDTH 582 0
DWIDTH 42 0
BBX 34 56 3 -1
BITMAP
0000003FC0
0000003FC0
0000003FC0
0000003FC0
0000003FC0
0000003FC0
0000003FC0
0000003FC0
0000003FC0
0000003FC0
0000003FC0
0000003FC0
0000003FC0
0000003FC0
0000003FC0
0000003FC0
0000003FC0
0000003FC0
0000003FC0
0000003FC0
0000003FC0
001FE03FC0
00FFFC3FC0
01FFFE3FC0
07FFFF3FC0
0FFFFFBFC0
0FFFFFFFC0
1FFC0FFFC0
3FF003FFC0
3FE001FFC0
7FC000FFC0
7FC0007FC0
7F80007FC0
FF80003FC0
FF00003FC0
FF00003FC0
FF00003FC0
FF00003FC0
FF00003FC0
FF00003FC0
FF00003FC0
FF00003FC0
FF00003FC0
FF80007FC0
7F80007FC0
7F80007FC0
7FC000FFC0
3FE001FFC0
3FF003FFC0
1FFC0FFFC0
1FFFFFFFC0
0FFFFFFFC0
07FFFFBFC0
03FFFE3FC0
00FFFC3FC0
001FE00000
ENDCHAR
STARTCHAR e
ENCODING 101
SWIDTH 556 0
DWIDTH 40 0
BBX 36 35 3 -1
BITMAP
0007FE0000
003FFFC000
00FFFFF000
01FFFFF800
07FFFFFC00
0FFFFFFE00
0FFC07FF00
1FF001FF80
3FE0007F80
3FC0007FC0
7FC0003FC0
7F80003FC0
7F80001FC0
FF80001FE0
FFFFFFFFE0
FFFFFFFFE0
FFFFFFFFE0
FFFFFFFFE0
FFFFFFFFE0
FF00000000
FF00000000
FF00000000
7F80000800
7F80001E00
7F80003F80
3FC0003FE0
3FE0007FF0
1FF001FFE0
1FFC07FFC0
0FFFFFFF80
07FFFFFF00
03FFFFFE00
00FFFFF800
003FFFE000
0007FE0000
ENDCHAR
STARTCHAR f
ENCODING 102
SWIDTH 306 0
DWIDTH 22 0
BBX 23 55 0 0
BITMAP
0007FC
001FFE
007FFE
00FFFE
00FFFE
01FFFE
01FF82
01FE00
03FE00
03FC00
03FC00
03FC00
03FC00
03FC00
03FC00
03FC00
03FC00
03FC00
03FC00
03FC00
03FC00
03FC00
FFFFFC
FFFFFC
FFFFFC
FFFFFC
FFFFFC
FFFFFC
03FC00
03FC00
03FC00
03FC00
03FC00
03FC00
03FC00
03FC00
03FC00
03FC00
03FC00
03FC00
03FC00
03FC00
03FC00
03FC00
03FC00
03FC00
03FC00
03FC00
03FC00
03FC00
03FC00
03FC00
03FC00
03FC00
03FC00
ENDCHAR
STARTCHAR g
ENCODING 103
SWIDTH 582 0
DWIDTH 42 0
BBX 34 50 3 -16
BITMAP
001FE00000
00FFFC3FC0
01FFFE3FC0
07FFFF3FC0
0FFFFFBFC0
0FFFFFFFC0
1FFC0FFFC0
3FF003FFC0
3FE001FFC0
7FC000FFC0
7FC0007FC0
7F80007FC0
FF80003FC0
FF00003FC0
FF00003FC0
FF00003FC0
FF00003FC0
FF00003FC0
FF00003FC0
FF00003FC0
FF00003FC0
FF00003FC0
FF80007FC0
7F80007FC0
7F80007FC0
7FC000FFC0
3FE001FFC0
3FF003FFC0
1FFC0FFFC0
1FFFFFFFC0
0FFFFFFFC0
07FFFFBFC0
03FFFE3FC0
00FFFC3FC0
001FE03FC0
0000003FC0
0000003FC0
0000003FC0
0000007F80
3FC0007F80
3FC0007F80
3FE000FF80
3FE001FF00
1FF807FF00
1FFFFFFE00
0FFFFFFE00
07FFFFF800
01FFFFF000
00FFFFC000
000FFE0000
ENDCHAR
STARTCHAR h
ENCODING 104
SWIDTH 587 0
DWIDTH 42 0
BBX 32 55 5 0
BITMAP
FF000000
FF000000
FF000000
FF000000
FF000000
FF000000
FF000000
FF000000
FF000000
FF000000
FF000000
FF000000
FF000000
FF000000
FF000000
FF000000
FF000000
FF000000
FF000000
FF000000
FF000000
FF00FF00
FF07FFE0
FF1FFFF8
FF3FFFFC
FF7FFFFC
FFFFFFFE
FFFC0FFE
FFF003FF
FFC001FF
FFC001FF
FF8001FF
FF8000FF
FF0000FF
FF0000FF
FF0000FF
FF0000FF
FF0000FF
FF0000FF
FF0000FF
FF0000FF
FF0000FF
FF0000FF
FF0000FF
FF0000FF
FF0000FF
FF0000FF
FF0000FF
FF0000FF
FF0000FF
FF0000FF
FF0000FF
FF0000FF
FF0000FF
FF0000FF
ENDCHAR
STARTCHAR i
ENCODING 105
SWIDTH 262 0
DWIDTH 19 0
BBX 10 53 5 0
BITMAP
1E00
7F80
7F80
FFC0
FFC0
FFC0
FFC0
7F80
7F80
1E00
0000
0000
0000
0000
0000
0000
0000
0000
0000
0000
7F80
7F80
7F80
7F80
7F80
7F80
7F80
7F80
7F80
7F80
7F80
7F80
7F80
7F80
7F80
7F80
7F80
7F80
7F80
7F80
7F80
7F80
7F80
7F80
7F80
7F80
7F80
7F80
7F80
7F80
7F80
7F80
7F80
ENDCHAR
STARTCHAR j
ENCODING 106
SWIDTH 262 0
DWIDTH 19 0
BBX 10 69 4 -16
BITMAP
1E00
7F80
7F80
FFC0
FFC0
FFC0
FFC0
7F80
7F80
1E00
0000
0000
0000
0000
0000
0000
0000
0000
0000
0000
7F80
7F80
7F80
7F80
7F80
7F80
7F80
7F80
7F80
7F80
7F80
7F80
7F80
7F80
7F80
7F80
7F80
7F80
7F80
7F80
7F80
7F80
7F80
7F80
7F80
7F80
7F80
7F80
7F80
7F80
7F80
7F80
7F80
7F80
7F80
7F80
7F80
7F80
7F80
7F80
7F80
7F80
7F80
7F80
7F80
7F80
7F80
7F80
7F80
ENDCHAR
STARTCHAR k
ENCODING 107
SWIDTH 516 0
DWIDTH 37 0
BBX 32 55 5 0
BITMAP
FF000000
FF000000
FF000000
FF000000
FF000000
FF000000
FF000000
FF000000
FF000000
FF000000
FF000000
FF000000
FF000000
FF000000
FF000000
FF000000
FF000000
FF000000
FF000000
FF000000
FF000000
FF000000
FF0007FE
FF000FF8
FF001FF0
FF003FE0
FF007FC0
FF00FF80
FF01FF00
FF03FE00
FF07FC00
FF0FF800
FF1FF000
FF3FE000
FF7FC000
FFFF8000
FFFF0000
FFFF8000
FFFFC000
FF7FE000
FF3FE000
FF1FF000
FF0FF800
FF07FC00
FF03FE00
FF03FF00
FF01FF80
FF00FFC0
FF007FC0
FF003FE0
FF001FF0
FF001FF8
FF000FFC
FF0007FE
FF0003FF
ENDCHAR
STARTCHAR l
ENCODING 108
SWIDTH 262 0
DWIDTH 19 0
BBX 8 55 5 0
BITMAP
FF
FF
FF
FF
FF
FF
FF
FF
FF
FF
FF
FF
FF
FF
FF
FF
FF
FF
FF
FF
FF
FF
FF
FF
FF
FF
FF
FF
FF
FF
FF
FF
FF
FF
FF
FF
FF
FF
FF
FF
FF
FF
FF
FF
FF
FF
FF
FF
FF
FF
FF
FF
FF
FF
FF
ENDCHAR
STARTCHAR m
ENCODING 109
SWIDTH 875 0
DWIDTH 63 0
BBX 52 34 5 0
BITMAP
0001FE0007F800
FF07FF801FFF00
FF1FFFE07FFF80
FF3FFFF0FFFFC0
FF7FFFF1FFFFE0
FFFFFFFBFFFFE0
FFF83FFFE07FF0
FFE00FFF803FF0
FFC007FF001FF0
FF8007FE001FF0
FF8007FE001FF0
FF8003FE000FF0
FF0003FC000FF0
FF0003FC000FF0
FF0003FC000FF0
FF0003FC000FF0
FF0003FC000FF0
FF0003FC000FF0
FF0003FC000FF0
FF0003FC000FF0
FF0003FC000FF0
FF0003FC000FF0
FF0003FC000FF0
FF0003FC000FF0
FF0003FC000FF0
FF0003FC000FF0
FF0003FC000FF0
FF0003FC000FF0
FF0003FC000FF0
FF0003FC000FF0
FF0003FC000FF0
FF0003FC000FF0
FF0003FC000FF0
FF0003FC000FF0
ENDCHAR
STARTCHAR n
ENCODING 110
SWIDTH 587 0
DWIDTH 42 0
BBX 32 34 5 0
BITMAP
0000FF00
FF07FFE0
FF1FFFF8
FF3FFFFC
FF7FFFFC
FFFFFFFE
FFFC0FFE
FFF003FF
FFC001FF
FFC001FF
FF8001FF
FF8000FF
FF0000FF
FF0000FF
FF0000FF
FF0000FF
FF0000FF
FF0000FF
FF0000FF
FF0000FF
FF0000FF
FF0000FF
FF0000FF
FF0000FF
FF0000FF
FF0000FF
FF0000FF
FF0000FF
FF0000FF
FF0000FF
FF0000FF
FF0000FF
FF0000FF
FF0000FF
ENDCHAR
STARTCHAR o
ENCODING 111
SWIDTH 587 0
DWIDTH 42 0
BBX 37 35 3 -1
BITMAP
0003FE0000
001FFFC000
007FFFF000
01FFFFFC00
03FFFFFE00
07FFFFFF00
0FFE03FF80
1FF800FFC0
1FF0007FC0
3FE0003FE0
7FC0001FE0
7F80001FF0
7F80000FF0
FF80000FF8
FF000007F8
FF000007F8
FF000007F8
FF000007F8
FF000007F8
FF000007F8
FF000007F8
FF80000FF8
7F80000FF0
7F80001FF0
3FC0001FE0
3FE0003FE0
1FF0007FC0
1FF800FFC0
0FFE03FF80
07FFFFFF00
03FFFFFE00
01FFFFFC00
007FFFF000
001FFFC000
0003FE0000
ENDCHAR
STARTCHAR p
ENCODING 112
SWIDTH 582 0
DWIDTH 42 0
BBX 34 50 5 -16
BITMAP
0001FE0000
FF0FFFC000
FF1FFFE000
FF3FFFF800
FF7FFFFC00
FFFFFFFC00
FFFC0FFE00
FFF003FF00
FFE001FF00
FFC000FF80
FF8000FF80
FF80007F80
FF00007FC0
FF00003FC0
FF00003FC0
FF00003FC0
FF00003FC0
FF00003FC0
FF00003FC0
FF00003FC0
FF00003FC0
FF00003FC0
FF80007FC0
FF80007F80
FF80007F80
FFC000FF80
FFE001FF00
FFF003FF00
FFFC0FFE00
FFFFFFFE00
FFFFFFFC00
FF7FFFF800
FF1FFFF000
FF0FFFC000
FF01FE0000
FF00000000
FF00000000
FF00000000
FF00000000
FF00000000
FF00000000
FF00000000
FF00000000
FF00000000
FF00000000
FF00000000
FF00000000
FF00000000
FF00000000
FF00000000
ENDCHAR
STARTCHAR q
ENCODING 113
SWIDTH 582 0
DWIDTH 42 0
BBX 34 50 3 -16
BITMAP
001FE00000
00FFFC3FC0
01FFFE3FC0
07FFFF3FC0
0FFFFFBFC0
0FFFFFFFC0
1FFC0FFFC0
3FF003FFC0
3FE001FFC0
7FC000FFC0
7FC0007FC0
7F80007FC0
FF80003FC0
FF00003FC0
FF00003FC0
FF00003FC0
FF00003FC0
FF00003FC0
FF00003FC0
FF00003FC0
FF00003FC0
FF00003FC0
FF80007FC0
7F80007FC0
7F80007FC0
7FC000FFC0
3FE001FFC0
3FF003FFC0
1FFC0FFFC0
1FFFFFFFC0
0FFFFFFFC0
07FFFFBFC0
03FFFE3FC0
00FFFC3FC0
001FE03FC0
0000003FC0
0000003FC0
0000003FC0
0000003FC0
0000003FC0
0000003FC0
0000003FC0
0000003FC0
0000003FC0
0000003FC0
0000003FC0
0000003FC0
0000003FC0
0000003FC0
0000003FC0
ENDCHAR
STARTCHAR r
ENCODING 114
SWIDTH 368 0
DWIDTH 27 0
BBX 22 34 5 0
BITMAP
0007F0
FF1FFC
FF3FFC
FF7FF8
FF7FF8
FFFFF0
FFF030
FFE000
FFC000
FF8000
FF8000
FF8000
FF8000
FF0000
FF0000
FF0000
FF0000
FF0000
FF0000
FF0000
FF0000
FF0000
FF0000
FF0000
FF0000
FF0000
FF0000
FF0000
FF0000
FF0000
FF0000
FF0000
FF0000
FF0000
ENDCHAR
STARTCHAR s
ENCODING 115
SWIDTH 425 0
DWIDTH 31 0
BBX 28 35 1 -1
BITMAP
001FE000
00FFFC00
03FFFF00
07FFFF80
0FFFFFC0
1FFFFFC0
1FF03F80
3FE01E00
3FC00800
3FC00000
3FC00000
3FE00000
1FF80000
1FFE0000
0FFFC000
07FFF800
03FFFE00
00FFFF00
003FFF80
0007FFC0
0001FFE0
00007FE0
00001FF0
00000FF0
04000FF0
1E000FF0
3E000FF0
FF001FF0
7FE07FE0
7FFFFFE0
3FFFFFC0
1FFFFF80
0FFFFF00
03FFFC00
007FE000
ENDCHAR
STARTCHAR t
ENCODING 116
SWIDTH 303 0
DWIDTH 22 0
BBX 20 46 1 0
BITMAP
03FC00
03FC00
03FC00
03FC00
03FC00
03FC00
03FC00
03FC00
03FC00
03FC00
03FC00
03FC00
03FC00
FFFFF0
FFFFF0
FFFFF0
FFFFF0
FFFFF0
FFFFF0
03FC00
03FC00
03FC00
03FC00
03FC00
03FC00
03FC00
03FC00
03FC00
03FC00
03FC00
03FC00
03FC00
03FC00
03FC00
03FC00
03FC00
03FC00
03FC00
03FC00
03FC00
03FC00
03FC00
03FC00
03FC00
03FC00
03FC00
ENDCHAR
STARTCHAR u
ENCODING 117
SWIDTH 587 0
DWIDTH 42 0
BBX 32 34 5 -1
BITMAP
FF0000FF
FF0000FF
FF0000FF
FF0000FF
FF0000FF
FF0000FF
FF0000FF
FF0000FF
FF0000FF
FF0000FF
FF0000FF
FF0000FF
FF0000FF
FF0000FF
FF0000FF
FF0000FF
FF0000FF
FF0000FF
FF0000FF
FF0000FF
FF0000FF
FF0000FF
FF0000FF
7F8001FE
7F8001FE
7FC003FE
3FE007FC
3FF01FFC
1FFFFFF8
1FFFFFF8
0FFFFFF0
03FFFFC0
01FFFF80
001FF800
ENDCHAR
STARTCHAR v
ENCODING 118
SWIDTH 472 0
DWIDTH 34 0
BBX 35 34 -1 -1
BITMAP
FF80001FE0
7F80003FC0
7FC0003FC0
3FC0007F80
3FE0007F80
1FE000FF00
1FF000FF00
0FF000FE00
0FF001FE00
07F801FC00
07F803FC00
03FC03F800
01FC07F800
01FE07F000
00FE07F000
00FE0FE000
007F0FE000
007F1FC000
003F9FC000
003F9F8000
001FBF8000
001FBF0000
000FFF0000
000FFE0000
0007FE0000
0007FC0000
0003FC0000
0003F80000
0001F80000
0001F00000
0000F00000
0000E00000
0000600000
0000400000
ENDCHAR
STARTCHAR w
ENCODING 119
SWIDTH 750 0
DWIDTH 54 0
BBX 56 35 -1 -1
BITMAP
00000008000000
FF8000180000FF
7F80001C0001FE
7FC0003C0001FE
3FC0003E0003FC
3FE0007E0003FC
1FE0007F0007F8
1FF000FF0007F8
0FF000FF800FF0
0FF801FF800FF0
07F801FFC01FE0
03FC01FFC01FE0
03FC03FFC01FC0
01FE03F7E03FC0
01FE07E7E03F80
00FF07E7F07F80
00FF0FE3F07F00
007F8FC3F8FF00
007F9FC1F8FE00
003F9F81FDFE00
003FBF80FDFC00
001FFF00FDF800
001FFF007DF800
000FFF007FF000
000FFE007FF000
0007FE003FE000
0007FC003FE000
0003FC001FC000
0003F8001FC000
0001F8000F8000
0000F0000F8000
0000F000070000
00006000070000
00006000020000
00004000020000
ENDCHAR
STARTCHAR x
ENCODING 120
SWIDTH 453 0
DWIDTH 33 0
BBX 34 33 -1 0
BITMAP
3FE000FF00
1FE001FE00
0FF003FC00
0FF807FC00
07F807F800
03FC0FF000
03FE1FF000
01FE1FE000
00FF3FC000
007F3F8000
007FFF8000
003FFF0000
001FFE0000
001FFE0000
000FFC0000
000FFC0000
000FFC0000
001FFE0000
003FFF0000
003FFF0000
007FFF8000
00FF3FC000
01FF3FE000
01FE1FE000
03FC0FF000
07FC0FF800
07F807F800
0FF003FC00
1FF003FE00
3FE001FF00
3FC000FF00
7F80007F80
FF80007FC0
ENDCHAR
STARTCHAR y
ENCODING 121
SWIDTH 471 0
DWIDTH 34 0
BBX 35 49 0 -16
BITMAP
FF80003FE0
7F80003FC0
7F80003FC0
7FC0007F80
3FC0007F80
3FC000FF00
1FE000FF00
1FE001FE00
1FE001FE00
0FF003FC00
0FF003FC00
07F807F800
07F807F800
07F80FF000
03FC0FF000
03FC1FE000
01FC1FE000
01FE1FC000
01FE3FC000
00FE3F8000
00FF7F8000
007F7F0000
007FFF0000
007FFE0000
003FFE0000
003FFC0000
001FFC0000
001FFC0000
001FF80000
000FF80000
000FF00000
000FF00000
001FE00000
001FE00000
003FC00000
003FC00000
007F800000
007F800000
00FF000000
00FF000000
01FE000000
01FE000000
03FC000000
03FC000000
07F8000000
07F8000000
0FF0000000
0FF0000000
1FE0000000
ENDCHAR
STARTCHAR z
ENCODING 122
SWIDTH 449 0
DWIDTH 32 0
BBX 31 33 0 0
BITMAP
3FFFFFFE
3FFFFFFC
3FFFFFF8
3FFFFFF8
3FFFFFF0
3FFFFFE0
00003FE0
00003FC0
00007F80
0000FF80
0001FF00
0001FE00
0003FE00
0007FC00
0007F800
000FF800
001FF000
001FE000
003FE000
007FC000
007F8000
00FF0000
01FF0000
01FE0000
03FC0000
07FC0000
0FF80000
0FFFFFFE
1FFFFFFE
3FFFFFFE
3FFFFFFE
7FFFFFFE
FFFFFFFE
ENDCHAR
STARTCHAR braceleft
ENCODING 123
SWIDTH 500 0
DWIDTH 36 0
BBX 25 66 5 -14
BITMAP
00007F80
0003FF80
000FFF80
000FFF80
001FFF80
001FFF80
003FF000
003FC000
003FC000
003F8000
003F8000
003F8000
003F8000
003F8000
003F8000
003F8000
003F8000
003F8000
003F8000
003F8000
003F8000
003F8000
003F8000
003F8000
003F8000
007F8000
007F8000
00FF0000
00FF0000
03FF0000
FFFE0000
FFFC0000
FFF00000
FFF00000
FFFC0000
FFFE0000
03FF0000
01FF0000
00FF0000
007F8000
007F8000
003F8000
003F8000
003F8000
003F8000
003F8000
003F8000
003F8000
003F8000
003F8000
003F8000
003F8000
003F8000
003F8000
003F8000
003F8000
003F8000
003FC000
003FC000
003FF000
001FFF80
001FFF80
000FFF80
000FFF80
0003FF80
00007F80
ENDCHAR
STARTCHAR bar
ENCODING 124
SWIDTH 500 0
DWIDTH 36 0
BBX 6 72 15 -17
BITMAP
FC
FC
FC
FC
FC
FC
FC
FC
FC
FC
FC
FC
FC
FC
FC
FC
FC
FC
FC
FC
FC
FC
FC
FC
FC
FC
FC
FC
FC
FC
FC
FC
FC
FC
FC
FC
FC
FC
FC
FC
FC
FC
FC
FC
FC
FC
FC
FC
FC
FC
FC
FC
FC
FC
FC
FC
FC
FC
FC
FC
FC
FC
FC
FC
FC
FC
FC
FC
FC
FC
FC
FC
ENDCHAR
STARTCHAR braceright
ENCODING 125
SWIDTH 500 0
DWIDTH 36 0
BBX 25 66 5 -14
BITMAP
FF000000
FFE00000
FFF80000
FFF80000
FFFC0000
FFFC0000
07FE0000
01FE0000
01FE0000
00FE0000
00FE0000
00FE0000
00FE0000
00FE0000
00FE0000
00FE0000
00FE0000
00FE0000
00FE0000
00FE0000
00FE0000
00FE0000
00FE0000
00FE0000
00FE0000
00FF0000
00FF0000
007F0000
007F8000
007FE000
003FFF80
001FFF80
0007FF80
0003FF80
001FFF80
003FFF80
007FE000
007FC000
007F8000
00FF0000
00FF0000
00FE0000
00FE0000
00FE0000
00FE0000
00FE0000
00FE0000
00FE0000
00FE0000
00FE0000
00FE0000
00FE0000
00FE0000
00FE0000
00FE0000
00FE0000
00FE0000
01FE0000
01FE0000
07FE0000
FFFC0000
FFFC0000
FFF80000
FFF80000
FFE00000
FF000000
ENDCHAR
STARTCHAR asciitilde
ENCODING 126
SWIDTH 833 0
DWIDTH 60 0
BBX 48 13 6 15
BITMAP
000000000001
003FC0000003
01FFFC000007
07FFFF80001F
1FFFFFF0007F
7FFFFFFE03FF
FFFFFFFFFFFF
FFC07FFFFFFE
FE0007FFFFF8
F80000FFFFF0
E000001FFFC0
C0000003FC00
800000000000
ENDCHAR
STARTCHAR nonbreakingspace
ENCODING 160
SWIDTH 604 0
DWIDTH 43 0
BBX 1 1 0 0
BITMAP
00
ENDCHAR
STARTCHAR degree
ENCODING 176
SWIDTH 329 0
DWIDTH 24 0
BBX 21 21 2 30
BITMAP
01FC00
07FF00
0FFF80
1FFFC0
3F07E0
7C01F0
7800F0
F800F8
F00078
F00078
F00078
F00078
F00078
F800F8
7800F0
7C01F0
3F07E0
1FFFC0
0FFF80
07FF00
01FC00
ENDCHAR
ENDFONT
